<svg xmlns="http://www.w3.org/2000/svg" viewBox="0 0 145.73 122.28"><defs><style>.cls-1,.cls-3{fill:none;stroke-miterlimit:10;stroke-width:6px;}.cls-1{stroke:#ff7bac;}.cls-1,.cls-2{opacity:0.44;}.cls-2{fill:aqua;}.cls-3{stroke:#000;}</style></defs><title>navbar_logo2</title><g id="Layer_2" data-name="Layer 2"><polygon class="cls-1" points="74.87 117.28 141.99 27.7 125.15 5 24.58 5 7.74 27.7 74.87 117.28"/><line class="cls-1" x1="7.99" y1="27.46" x2="141.75" y2="27.46"/><polyline class="cls-1" points="24.49 5 49.99 26.5 74.99 5.5 99.99 26.5 125.49 5"/><polyline class="cls-1" points="49.84 23.46 74.99 110.5 99.92 23.46"/></g><g id="Layer_1" data-name="Layer 1"><path class="cls-2" d="M211.17,159.7a5.06,5.06,0,0,0-.23-6.45c-3.48-4-7.71-11.6-13.63-12a6.45,6.45,0,0,0-1.86.16,9.43,9.43,0,0,0-.47-1.31c-3.18-7-17-5.46-22.89-3.67a8.8,8.8,0,0,0-5.15,3.42c-1.56,0-3.12.08-4.68.19a14.82,14.82,0,0,1-1.27-1.36c-3.05-3.74-7.76-.67-8.23,3.18a4.76,4.76,0,0,0-2.95-.93,4.59,4.59,0,0,0-3.53,1.48l-1.16-.31a3.88,3.88,0,0,0-4.35-2.59,5.21,5.21,0,0,0-1.92-.35A4.81,4.81,0,0,0,136,140c-2.31-.44-4.63-.8-7-1.05a100.5,100.5,0,0,0-17.52,0c-4.7.34-10,.13-13.77,3.36-2.88,2.46-7.22,4.68-8.73,8.33a8.28,8.28,0,0,0,1.34,8.74c-3.33,1.49-4,7.4.1,9.36-.18,2.63,1.42,5.41,4.82,5.41h.11a5.67,5.67,0,0,0,.51.73A417.44,417.44,0,0,1,131,224.1c.39,1.56.76,3.11,1.09,4.67a3.94,3.94,0,0,1,1.29.58,9.2,9.2,0,0,1,4,5.87,14.78,14.78,0,0,1,.25,2.55,10.48,10.48,0,0,1,2.34,2.36,11.28,11.28,0,0,0,2.49.74c4.18.7,7.92-3.28,5.64-7.34-.1-.19-.21-.37-.31-.55a5.16,5.16,0,0,0,3.78.73,21.49,21.49,0,0,0-.17,4.11c.22,3.92,5.56,7.11,8.53,3.53,2.22-2.67,3.08-5.39,4.29-8.55,1.37-3.56,3.89-6,6.45-8.72,5-5.29,8.23-11.53,12.52-17.33,4.44-6,8.75-11.08,11.51-18.1,3.19-8.14,9.43-13.36,15.58-19.34a4.71,4.71,0,0,0,1.14-1.76A5.38,5.38,0,0,0,211.17,159.7Zm-70.93,60.37a33.85,33.85,0,0,0-.61-3.33,87.65,87.65,0,0,1-2.55-14.53,4,4,0,0,0,3.07,2c.28,2.93.53,5.86,1,8.78a41.31,41.31,0,0,0,1.83,7.82c.66,1.84,1.6,3.64,2.23,5.52a12.17,12.17,0,0,0,.47,2.9C143.87,226.13,142.08,223.09,140.24,220.07Zm14.13-59.31-11.47.38a32,32,0,0,0-5.36.32c-3.23-4.7-11.08.17-8.26,5.67.81,1.56,1.56,3.14,2.28,4.74a5.7,5.7,0,0,0-1.42.65c-1.19-2.83-2.48-5.65-3.84-8.49-1-2.11-3.58-2.68-5.65-2.3a50.62,50.62,0,0,1-20.74-.52c1.89-.32,3.75-.77,5.38-1l18.45-2.71a4.17,4.17,0,0,0,3.37-3.26h.66a7.78,7.78,0,0,0,5.41,4.29,11.68,11.68,0,0,0,3.53.33,9.9,9.9,0,0,0,2.38.9c6.44,1.51,14.35,0,20.9-2a24.89,24.89,0,0,1,2.88,2.75C160.12,160.39,157.26,160.67,154.37,160.76Zm17.52,17c-1.23,3.45-3.56,7-4.84,9.61A160,160,0,0,0,159.83,204a68.25,68.25,0,0,0-2,7.54,64.08,64.08,0,0,1,2.91-13.8c2.94-8.75,5-19.91,11.06-27.12.11-.13.22-.27.32-.41C172.08,172.77,172,175.28,171.89,177.8Zm6.37-17.28c-3.59,0-5.18,3.07-4.76,5.83a2.76,2.76,0,0,0-.29.3,4,4,0,0,0-1.45-3.06,13.28,13.28,0,0,0-2.64-1.63,5.71,5.71,0,0,0,2.58-4.59l.07,0a4.54,4.54,0,0,0,5.87-.78,5.25,5.25,0,0,0,1.4,3.9Zm7.56.07a4.62,4.62,0,0,0,.85-1.16,32.07,32.07,0,0,0,14.19-.21,4.75,4.75,0,0,0,1.5-.64l1.51,1.74a3.64,3.64,0,0,0,.38.4l0,0Z" transform="translate(-79.01 -134.5)"/><polygon class="cls-3" points="70.87 115.28 137.99 25.7 121.15 3 20.58 3 3.74 25.7 70.87 115.28"/><line class="cls-3" x1="3.99" y1="25.46" x2="137.75" y2="25.46"/><polyline class="cls-3" points="20.49 3.5 45.99 24.5 70.99 3.99 95.99 24.5 121.49 3.5"/><polyline class="cls-3" points="45.84 25.46 70.99 109.5 95.92 25.46"/></g></svg>